<svg width="24" height="24" viewBox="0 0 24 24" fill="none" xmlns="http://www.w3.org/2000/svg">
<path fill-rule="evenodd" clip-rule="evenodd" d="M4 4C4 3.44772 4.44772 3 5 3H19C19.5523 3 20 3.44772 20 4C20 4.55228 19.5523 5 19 5H5C4.44772 5 4 4.55228 4 4Z" fill="white"/>
<path fill-rule="evenodd" clip-rule="evenodd" d="M5.92329 7.00293C6.47395 6.96057 6.95468 7.37263 6.99704 7.92329L7.78397 18.1534C7.86413 19.1954 8.73301 20 9.77808 20H14.2219C15.267 20 16.1358 19.1954 16.216 18.1534L17.0029 7.92329C17.0453 7.37263 17.526 6.96057 18.0767 7.00293C18.6273 7.04529 19.0394 7.52603 18.997 8.07668L18.2101 18.3068C18.0498 20.3908 16.312 22 14.2219 22H9.77808C7.68794 22 5.95017 20.3908 5.78986 18.3068L5.00293 8.07668C4.96057 7.52603 5.37263 7.04529 5.92329 7.00293Z" fill="white"/>
<path fill-rule="evenodd" clip-rule="evenodd" d="M12 4.15051C12.5784 4.69033 13.3463 4.99999 14.1552 4.99999L16 4.99999V2.99999L14.1552 2.99999C13.7679 2.99999 13.4061 2.8064 13.1913 2.4841C12.6246 1.63405 11.3754 1.63404 10.8087 2.4841C10.5939 2.8064 10.2321 2.99999 9.84479 2.99999L8 2.99999V4.99999L9.84479 4.99999C10.6537 4.99999 11.4216 4.69033 12 4.15051Z" fill="white"/>
</svg>
