<svg width="34" height="34" viewBox="0 0 34 34" fill="none" xmlns="http://www.w3.org/2000/svg">
<path fill-rule="evenodd" clip-rule="evenodd" d="M4.25 17C4.25 16.2176 4.88426 15.5833 5.66667 15.5833H28.3333C29.1157 15.5833 29.75 16.2176 29.75 17C29.75 17.7824 29.1157 18.4167 28.3333 18.4167H5.66667C4.88426 18.4167 4.25 17.7824 4.25 17Z" fill="white"/>
<path fill-rule="evenodd" clip-rule="evenodd" d="M17 4.25C17.7824 4.25 18.4167 4.88426 18.4167 5.66667L18.4167 28.3333C18.4167 29.1157 17.7824 29.75 17 29.75C16.2176 29.75 15.5833 29.1157 15.5833 28.3333L15.5833 5.66667C15.5833 4.88426 16.2176 4.25 17 4.25Z" fill="white"/>
</svg>
